# xmcd
#
# Track frame offsets: 
#        150
#        14314
#        14866
#        31234
#
# Disc length: 693 seconds
#
# Revision: 0
# Processed by: cddbd v1.4PL0 Copyright (c) Steve Scherf et al.
# Submitted via: ExactAudioCopy v0.95a4
#
DISCID=2902b304
DTITLE=Gloria Gaynor - Little Drummer Boy
DYEAR=2002
DGENRE=R&B
TTITLE0=Little Drummer Boy
TTITLE1=Gloria Gaynor Holiday Greeting
TTITLE2=I Never Knew (LP Version)
TTITLE3=I Wish You Love (LP Medley)
EXTD=
EXTT0=
EXTT1=
EXTT2=
EXTT3=
PLAYORDER=
